# xmcd CD database file
#
# Track frame offsets:
#	150
#	11947
#	23207
#	38491
#	50241
#	63940
#	77042
#	91737
#	110573
#	124263
#	140381
#	153221
#	167406
#	178503
#	191082
#	202835
#	218987
#	229675
#	247257
#	260142
#
# Disc length: 3732 seconds
#
# Revision: 1
# Processed by: cddbd v1.5PL3 Copyright (c) Steve Scherf et al.
# Submitted via: CDex 1.50beta10
#
DISCID=160e9214
DTITLE=ハナ肇とクレイジー・キャッツ - BIG ARTIST BEST COLLECTION
DYEAR=1900
DGENRE=Japanese Pop
TTITLE0=ウンジャラゲ
TTITLE1=ドント節
TTITLE2=ハイそれまでョ
TTITLE3=無責任一代男
TTITLE4=これが男の生きる道
TTITLE5=馬鹿は死んでも直らない
TTITLE6=無責任数え歌
TTITLE7=めんどうみたョ
TTITLE8=五万節
TTITLE9=こりゃシャクだった
TTITLE10=スーダラ節
TTITLE11=ホンダラ行進曲
TTITLE12=遺憾に存じます
TTITLE13=ショボクレ人生
TTITLE14=ホラ吹き節
TTITLE15=学生節
TTITLE16=だまって俺についてこい
TTITLE17=悲しきわがこころ
TTITLE18=ゴマスリ行進曲
TTITLE19=これで日本も安心だ
EXTD=
EXTT0=
EXTT1=
EXTT2=
EXTT3=
EXTT4=
EXTT5=
EXTT6=
EXTT7=
EXTT8=
EXTT9=
EXTT10=
EXTT11=
EXTT12=
EXTT13=
EXTT14=
EXTT15=
EXTT16=
EXTT17=
EXTT18=
EXTT19=
PLAYORDER=
